{"title":"Men in Black 3(2012)Mpeg-4[DaScubaDude]","uid":14489626,"size":1051049372,"categoryP":"video","categoryS":"movies","magnet":"?xt=urn:btih:a6f1b223165c6a28894c99a3a2220ff27d091432&amp;dn=Men+in+Black+3%282012%29Mpeg-4%5BDaScubaDude%5D&amp;tr=udp%3A%2F%2Ftracker.leechers-paradise.org%3A6969&amp;tr=udp%3A%2F%2Fzer0day.ch%3A1337&amp;tr=udp%3A%2F%2Fopen.demonii.com%3A1337&amp;tr=udp%3A%2F%2Ftracker.coppersurfer.tk%3A6969&amp;tr=udp%3A%2F%2Fexodus.desync.com%3A6969","seeders":0,"leechers":1,"uploader":"dascuba","files":1,"time":1462084766,"description":"Men in Black 3 (2012)\r\nPG-13 | 1h 46min | Action, Comedy, Sci-Fi | 25 May 2012 (USA)\r\ngent J travels in time to M.I.B.'s early days in 1969 to stop an alien from assassinating his friend Agent K and changing history.\r\nDirector: Barry Sonnenfeld\r\nWriters: Etan Cohen, Lowell Cunningham (based on the Malibu comic by)\r\nStars: Will Smith, Tommy Lee Jones, Josh Brolin\r\n\r\nGeneral\r\nComplete name                            : MenInBlkMEN_IN_BLACK_3_Title1.mp4\r\nFormat                                   : MPEG-4\r\nFormat profile                           : Base Media\r\nCodec ID                                 : isom (isom/iso2/avc1/mp41)\r\nFile size                                : 1 002 MiB\r\nDuration                                 : 1h 45mn\r\nOverall bit rate                         : 1 325 Kbps\r\nMovie name                               : MEN_IN_BLACK_3\r\nGenre                                    : Comedy\r\nWriting application                      : Lavf54.6.100\r\n\r\nVideo\r\nID                                       : 1\r\nFormat                                   : AVC\r\nFormat/Info                              : Advanced Video Codec\r\nFormat profile                           :   \r\nFormat settings, CABAC                   : No\r\nFormat settings, ReFrames                : 6 frames\r\nCodec ID                                 : avc1\r\nCodec ID/Info                            : Advanced Video Coding\r\nDuration                                 : 1h 45mn\r\nBit rate                                 : 1 191 Kbps\r\nWidth                                    : 720 pixels\r\nHeight                                   : 404 pixels\r\nDisplay aspect ratio                     : 16:9\r\nFrame rate mode                          : Constant\r\nFrame rate                               : 29.970 (30000/1001) fps\r\nColor space                              : YUV\r\nChroma subsampling                       : 4:2:0\r\nBit depth                                : 8 bits\r\nScan type                                : Progressive\r\nBits/(Pixel*Frame)                       : 0.137\r\nStream size                              : 901 MiB (90%)\r\n\r\nAudio\r\nID                                       : 2\r\nFormat                                   : AAC\r\nFormat/Info                              : Advanced Audio Codec\r\nFormat profile                           : LC\r\nCodec ID                                 : 40\r\nDuration                                 : 1h 45mn\r\nBit rate mode                            : Constant\r\nBit rate                                 : 128 Kbps\r\nChannel(s)                               : 2 channels\r\nChannel positions                        : Front: L R\r\nSampling rate                            : 44.1 KHz\r\nFrame rate                               : 43.066 fps (1024 spf)\r\nCompression mode                         : Lossy\r\nStream size                              : 96.7 MiB (10%)\r\nDefault                                  : Yes\r\nAlternate group                          : 1","torrent":{"xt":"urn:btih:a6f1b223165c6a28894c99a3a2220ff27d091432","amp;dn":"Men+in+Black+3%282012%29Mpeg-4%5BDaScubaDude%5D","amp;tr":["udp%3A%2F%2Ftracker.leechers-paradise.org%3A6969","udp%3A%2F%2Fzer0day.ch%3A1337","udp%3A%2F%2Fopen.demonii.com%3A1337","udp%3A%2F%2Ftracker.coppersurfer.tk%3A6969","udp%3A%2F%2Fexodus.desync.com%3A6969"],"infoHash":"a6f1b223165c6a28894c99a3a2220ff27d091432","infoHashBuffer":{"type":"Buffer","data":[166,241,178,35,22,92,106,40,137,76,153,163,162,34,15,242,125,9,20,50]},"announce":[],"urlList":[]}}